<svg xmlns="http://www.w3.org/2000/svg" x="0px" y="0px"
width="24" height="24"
viewBox="0 0 226 226"
style=" fill:#000000;"><g fill="none" fill-rule="nonzero" stroke="none" stroke-width="1" stroke-linecap="butt" stroke-linejoin="miter" stroke-miterlimit="10" stroke-dasharray="" stroke-dashoffset="0" font-family="none" font-weight="none" font-size="none" text-anchor="none" style="mix-blend-mode: normal"><path d="M0,226v-226h226v226z" fill="none"></path><path d="M0,113c0,-62.40818 50.59182,-113 113,-113c62.40818,0 113,50.59182 113,113c0,62.40818 -50.59182,113 -113,113c-62.40818,0 -113,-50.59182 -113,-113zM113,216.96c57.41552,0 103.96,-46.54448 103.96,-103.96c0,-57.41552 -46.54448,-103.96 -103.96,-103.96c-57.41552,0 -103.96,46.54448 -103.96,103.96c0,57.41552 46.54448,103.96 103.96,103.96z" fill="#000000"></path><g fill="#000000"><path d="M118.11296,67.27031l-45.72969,45.72969l45.72969,45.72968l11.3,-11.3l-34.42969,-34.42968l34.42969,-34.42969z"></path></g><path d="M113,226c-62.40818,0 -113,-50.59182 -113,-113v0c0,-62.40818 50.59182,-113 113,-113v0c62.40818,0 113,50.59182 113,113v0c0,62.40818 -50.59182,113 -113,113z" fill="none"></path><path d="M113,221.48c-59.91185,0 -108.48,-48.56815 -108.48,-108.48v0c0,-59.91185 48.56815,-108.48 108.48,-108.48h0c59.91185,0 108.48,48.56815 108.48,108.48v0c0,59.91185 -48.56815,108.48 -108.48,108.48z" fill="none"></path><path d="M113,226c-62.40818,0 -113,-50.59182 -113,-113v0c0,-62.40818 50.59182,-113 113,-113v0c62.40818,0 113,50.59182 113,113v0c0,62.40818 -50.59182,113 -113,113z" fill="none"></path><path d="M113,221.48c-59.91185,0 -108.48,-48.56815 -108.48,-108.48v0c0,-59.91185 48.56815,-108.48 108.48,-108.48h0c59.91185,0 108.48,48.56815 108.48,108.48v0c0,59.91185 -48.56815,108.48 -108.48,108.48z" fill="none"></path><path d="M113,226c-62.40818,0 -113,-50.59182 -113,-113v0c0,-62.40818 50.59182,-113 113,-113v0c62.40818,0 113,50.59182 113,113v0c0,62.40818 -50.59182,113 -113,113z" fill="none"></path><path d="M113,221.48c-59.91185,0 -108.48,-48.56815 -108.48,-108.48v0c0,-59.91185 48.56815,-108.48 108.48,-108.48h0c59.91185,0 108.48,48.56815 108.48,108.48v0c0,59.91185 -48.56815,108.48 -108.48,108.48z" fill="none"></path><path d="M113,226c-62.40818,0 -113,-50.59182 -113,-113v0c0,-62.40818 50.59182,-113 113,-113v0c62.40818,0 113,50.59182 113,113v0c0,62.40818 -50.59182,113 -113,113z" fill="none"></path><path d="M113,221.48c-59.91185,0 -108.48,-48.56815 -108.48,-108.48v0c0,-59.91185 48.56815,-108.48 108.48,-108.48h0c59.91185,0 108.48,48.56815 108.48,108.48v0c0,59.91185 -48.56815,108.48 -108.48,108.48z" fill="none"></path><path d="M113,226c-62.40818,0 -113,-50.59182 -113,-113v0c0,-62.40818 50.59182,-113 113,-113v0c62.40818,0 113,50.59182 113,113v0c0,62.40818 -50.59182,113 -113,113z" fill="none"></path><path d="M113,221.48c-59.91185,0 -108.48,-48.56815 -108.48,-108.48v0c0,-59.91185 48.56815,-108.48 108.48,-108.48h0c59.91185,0 108.48,48.56815 108.48,108.48v0c0,59.91185 -48.56815,108.48 -108.48,108.48z" fill="none"></path><path d="M113,226c-62.40818,0 -113,-50.59182 -113,-113v0c0,-62.40818 50.59182,-113 113,-113v0c62.40818,0 113,50.59182 113,113v0c0,62.40818 -50.59182,113 -113,113z" fill="none"></path><path d="M113,221.48c-59.91185,0 -108.48,-48.56815 -108.48,-108.48v0c0,-59.91185 48.56815,-108.48 108.48,-108.48h0c59.91185,0 108.48,48.56815 108.48,108.48v0c0,59.91185 -48.56815,108.48 -108.48,108.48z" fill="none"></path><path d="M113,226c-62.40818,0 -113,-50.59182 -113,-113v0c0,-62.40818 50.59182,-113 113,-113v0c62.40818,0 113,50.59182 113,113v0c0,62.40818 -50.59182,113 -113,113z" fill="none"></path><path d="M113,221.48c-59.91185,0 -108.48,-48.56815 -108.48,-108.48v0c0,-59.91185 48.56815,-108.48 108.48,-108.48h0c59.91185,0 108.48,48.56815 108.48,108.48v0c0,59.91185 -48.56815,108.48 -108.48,108.48z" fill="none"></path><path d="M113,226c-62.40818,0 -113,-50.59182 -113,-113v0c0,-62.40818 50.59182,-113 113,-113v0c62.40818,0 113,50.59182 113,113v0c0,62.40818 -50.59182,113 -113,113z" fill="none"></path><path d="M113,221.48c-59.91185,0 -108.48,-48.56815 -108.48,-108.48v0c0,-59.91185 48.56815,-108.48 108.48,-108.48h0c59.91185,0 108.48,48.56815 108.48,108.48v0c0,59.91185 -48.56815,108.48 -108.48,108.48z" fill="none"></path><path d="M113,226c-62.40818,0 -113,-50.59182 -113,-113v0c0,-62.40818 50.59182,-113 113,-113v0c62.40818,0 113,50.59182 113,113v0c0,62.40818 -50.59182,113 -113,113z" fill="none"></path><path d="M113,221.48c-59.91185,0 -108.48,-48.56815 -108.48,-108.48v0c0,-59.91185 48.56815,-108.48 108.48,-108.48h0c59.91185,0 108.48,48.56815 108.48,108.48v0c0,59.91185 -48.56815,108.48 -108.48,108.48z" fill="none"></path><path d="M113,226c-62.40818,0 -113,-50.59182 -113,-113v0c0,-62.40818 50.59182,-113 113,-113v0c62.40818,0 113,50.59182 113,113v0c0,62.40818 -50.59182,113 -113,113z" fill="none"></path><path d="M113,221.48c-59.91185,0 -108.48,-48.56815 -108.48,-108.48v0c0,-59.91185 48.56815,-108.48 108.48,-108.48h0c59.91185,0 108.48,48.56815 108.48,108.48v0c0,59.91185 -48.56815,108.48 -108.48,108.48z" fill="none"></path><path d="M113,226c-62.40818,0 -113,-50.59182 -113,-113v0c0,-62.40818 50.59182,-113 113,-113v0c62.40818,0 113,50.59182 113,113v0c0,62.40818 -50.59182,113 -113,113z" fill="none"></path><path d="M113,221.48c-59.91185,0 -108.48,-48.56815 -108.48,-108.48v0c0,-59.91185 48.56815,-108.48 108.48,-108.48h0c59.91185,0 108.48,48.56815 108.48,108.48v0c0,59.91185 -48.56815,108.48 -108.48,108.48z" fill="none"></path><path d="M113,226c-62.40818,0 -113,-50.59182 -113,-113v0c0,-62.40818 50.59182,-113 113,-113v0c62.40818,0 113,50.59182 113,113v0c0,62.40818 -50.59182,113 -113,113z" fill="none"></path><path d="M113,221.48c-59.91185,0 -108.48,-48.56815 -108.48,-108.48v0c0,-59.91185 48.56815,-108.48 108.48,-108.48h0c59.91185,0 108.48,48.56815 108.48,108.48v0c0,59.91185 -48.56815,108.48 -108.48,108.48z" fill="none"></path><path d="M113,226c-62.40818,0 -113,-50.59182 -113,-113v0c0,-62.40818 50.59182,-113 113,-113v0c62.40818,0 113,50.59182 113,113v0c0,62.40818 -50.59182,113 -113,113z" fill="none"></path><path d="M113,221.48c-59.91185,0 -108.48,-48.56815 -108.48,-108.48v0c0,-59.91185 48.56815,-108.48 108.48,-108.48h0c59.91185,0 108.48,48.56815 108.48,108.48v0c0,59.91185 -48.56815,108.48 -108.48,108.48z" fill="none"></path><path d="M113,226c-62.40818,0 -113,-50.59182 -113,-113v0c0,-62.40818 50.59182,-113 113,-113v0c62.40818,0 113,50.59182 113,113v0c0,62.40818 -50.59182,113 -113,113z" fill="none"></path><path d="M113,216.96c-57.41552,0 -103.96,-46.54448 -103.96,-103.96v0c0,-57.41552 46.54448,-103.96 103.96,-103.96v0c57.41552,0 103.96,46.54448 103.96,103.96v0c0,57.41552 -46.54448,103.96 -103.96,103.96z" fill="none"></path></g></svg>